<?xml version="1.0" encoding="utf-8"?>
<!-- Generator: Adobe Illustrator 24.0.0, SVG Export Plug-In . SVG Version: 6.00 Build 0)  -->
<svg version="1.1" xmlns="http://www.w3.org/2000/svg" xmlns:xlink="http://www.w3.org/1999/xlink" x="0px" y="0px"
	 viewBox="0 0 688.45 476.27" style="enable-background:new 0 0 688.45 476.27;" xml:space="preserve">
<style type="text/css">
	.st0{display:none;}
	.st1{display:inline;fill:#212120;}
	.st2{display:inline;}
	.st3{fill:#FFFFFF;}
	.st4{fill:#FFFFFF;stroke:#212120;stroke-width:1.414;stroke-miterlimit:10;}
	.st5{fill:#D3A839;}
	.st6{fill:#C59D30;}
	.st7{fill:#212120;}
	.st8{opacity:0.4;}
	.st9{fill:#474748;}
	.st10{fill:#FFFFFF;stroke:#212120;stroke-width:1.3661;stroke-miterlimit:10;}
	.st11{fill:url(#SVGID_3_);}
	.st12{fill:none;stroke:#212120;stroke-miterlimit:10;}
	.st13{clip-path:url(#SVGID_5_);}
	.st14{fill:#FFFFFF;stroke:#212120;stroke-width:1.4073;stroke-miterlimit:10;}
	.st15{fill:url(#SVGID_8_);}
	.st16{fill:url(#SVGID_9_);}
</style>
<g id="background" class="st0">
	<rect class="st1" width="688.45" height="476.27"/>
</g>
<g id="Layer_1">
	<g>
		<g>
			<path class="st6" d="M204.73,290.54h19.12v-5.23v-0.15c0-3.85,3.13-6.95,6.98-6.95c3.85,0,6.95,3.1,6.95,6.95v0.15v5.23h40.36
				c-0.01-0.13-0.02-0.26-0.02-0.39c0-4.93,3.72-8.96,8.29-8.96s8.26,4.02,8.26,8.96c0,0.13-0.01,0.26-0.02,0.39h41.97v-4.26
				c0-0.07,0-0.14,0-0.21c0-5.09,4.12-9.2,9.2-9.2s9.2,4.12,9.2,9.2v0.21v4.26h38.77c-0.01-0.13-0.02-0.26-0.02-0.39
				c0-4.93,3.69-8.96,8.26-8.96c4.57,0,8.29,4.02,8.29,8.96c0,0.13-0.01,0.26-0.02,0.39h40.36v-5.23v-0.15
				c0-3.85,3.13-6.95,6.98-6.95c3.85,0,6.95,3.1,6.95,6.95v0.15v5.23h19.15v-78.17h0.67v-7.25h-1.25l-1.95-9.66
				c0.39-0.15,0.67-0.52,0.67-0.94c0-0.56-0.48-1.04-1.07-1.04c-0.59,0-1.07,0.47-1.07,1.04c0,0.42,0.29,0.79,0.67,0.94l-1.95,9.66
				h-1.28v3.9h-1.37v-18.92h0.61v-6.09h-1.13l-1.65-9.32c0.38-0.14,0.67-0.5,0.67-0.91c0-0.54-0.47-0.97-1.04-0.97
				c-0.57,0-1.04,0.43-1.04,0.97c0,0.41,0.27,0.77,0.64,0.91l-1.65,9.32h-1.13V187h-0.58v-22.36h0.43v-5.12H469l-1.43-7.19
				c0.28-0.11,0.49-0.37,0.49-0.67c0-0.4-0.35-0.73-0.76-0.73c-0.42,0-0.76,0.34-0.76,0.73c0,0.3,0.22,0.56,0.49,0.67l-1.46,7.19
				h-0.91v4.2h-1.04v-4.39l-8.96-59.93h-0.97c1.07-0.6,1.8-1.69,1.8-2.96c0-1.66-1.22-3.08-2.86-3.41v-3.26
				c0.73-0.29,1.25-0.97,1.25-1.77c0-0.8-0.52-1.47-1.25-1.77v-3.08h-1.52v3.08c-0.74,0.29-1.28,0.96-1.28,1.77
				c0,0.81,0.54,1.48,1.28,1.77v3.26c-1.64,0.33-2.89,1.75-2.89,3.41c0,1.27,0.73,2.35,1.8,2.96h-0.97l-8.96,59.93v4.39h-1.04v-4.2
				h-0.91l-1.43-7.19c0.27-0.11,0.46-0.37,0.46-0.67c0-0.4-0.35-0.73-0.76-0.73c-0.42,0-0.73,0.34-0.73,0.73
				c0,0.3,0.18,0.56,0.46,0.67l-1.43,7.19h-0.91v5.12h0.4V187h-0.58v-2.99h-1.1l-1.68-9.32c0.37-0.15,0.67-0.51,0.67-0.91
				c0-0.54-0.47-0.97-1.04-0.97c-0.57,0-1.04,0.43-1.04,0.97c0,0.41,0.26,0.77,0.64,0.91l-1.65,9.32h-1.13v6.09h0.61v18.92h-1.37
				v-3.9h-1.28l-1.92-9.66c0.38-0.15,0.67-0.52,0.67-0.94c0-0.56-0.51-1.04-1.1-1.04c-0.59,0-1.07,0.47-1.07,1.04
				c0,0.43,0.28,0.79,0.67,0.94l-1.95,9.66h-1.25v7.25h0.67v40.91H412v-6.82h-7.28v4.02h-5.79v-7.22h-7.28v4.42h-7.98v-47.06h0.85
				v-8.99h-1.58l-2.38-11.97c0.49-0.19,0.82-0.63,0.82-1.16c0-0.7-0.61-1.25-1.34-1.25c-0.73,0-1.31,0.55-1.31,1.25
				c0,0.52,0.35,0.97,0.82,1.16l-2.41,11.97h-1.55v4.81h-1.74v-23.4h0.76v-7.56h-1.37l-2.04-11.52c0.47-0.18,0.79-0.62,0.79-1.13
				c0-0.67-0.58-1.22-1.28-1.22c-0.7,0-1.28,0.55-1.28,1.22c0,0.5,0.37,0.94,0.82,1.13l-2.04,11.52h-1.37v3.72h-0.76v-27.66h0.55
				v-6.37h-1.16l-1.77-8.9c0.34-0.13,0.58-0.45,0.58-0.82c0-0.49-0.43-0.88-0.94-0.88c-0.51,0-0.94,0.39-0.94,0.88
				c0,0.37,0.28,0.69,0.61,0.82l-1.8,8.9h-1.13v5.24h-1.28v-5.45l-11.09-74.13h-1.13c1.34-0.81,2.25-2.28,2.25-3.96
				c0-2.21-1.56-4.02-3.63-4.48v-2.62l1.13-0.85v-5.12l0.85-0.55l-0.06-7.1l2.59,5.45c0,0,0.33-0.46,0.4-0.7
				c0.11-0.38-0.09-1.07-0.09-1.07l-2.1-6.7l-0.34-0.67l-0.43-0.3h-1.68c0,0,0.02-2.06-0.18-3.08c-0.07-0.35-0.3-1.04-0.3-1.04
				s-0.23-0.59-0.46-0.76c-0.29-0.22-0.64-0.2-1.01-0.21c-0.34-0.01-0.63-0.01-0.91,0.18c-0.16,0.11-0.4,0.46-0.4,0.46l-0.12,0.49
				l-4.57-4.27l-1.13-1.71l0,0l-1.07,1.86l1.65,0.43l1.55,1.28l-0.43,3.26l-0.18,1.46c0,0-0.06,0.35,0,0.52
				c0.06,0.16,0.27,0.34,0.27,0.34l2.1,2.01v9.93l0.94,0.21l0.55,6.52h1.43v2.35c-2.07,0.46-3.63,2.27-3.63,4.48
				c0,1.68,0.91,3.15,2.25,3.96h-1.13l-11.09,74.13v5.45h-1.25v-5.24h-1.16l-1.77-8.9c0.33-0.13,0.58-0.46,0.58-0.82
				c0-0.49-0.43-0.88-0.94-0.88c-0.51,0-0.94,0.39-0.94,0.88c0,0.37,0.27,0.69,0.61,0.82l-1.8,8.9h-1.13v6.37h0.52v27.66h-0.73
				v-3.72h-1.37l-2.04-11.52c0.46-0.18,0.79-0.63,0.79-1.13c0-0.67-0.58-1.22-1.28-1.22c-0.7,0-1.28,0.55-1.28,1.22
				c0,0.51,0.32,0.95,0.79,1.13l-2.04,11.52h-1.37v7.56h0.76v23.4h-1.71v-4.81h-1.58l-2.41-11.97c0.47-0.19,0.85-0.64,0.85-1.16
				c0-0.7-0.61-1.25-1.34-1.25c-0.73,0-1.34,0.55-1.34,1.25c0,0.53,0.37,0.97,0.85,1.16l-2.41,11.97h-1.58v8.99h0.85v47.06h-7.98
				v-4.42h-7.28v7.22h-5.79v-4.02h-7.25v6.82h-7.98v-40.91h0.7v-7.25h-1.28l-1.95-9.66c0.39-0.15,0.67-0.52,0.67-0.94
				c0-0.56-0.48-1.04-1.07-1.04s-1.07,0.47-1.07,1.04c0,0.42,0.29,0.79,0.67,0.94l-1.95,9.66h-1.28v3.9h-1.37v-18.92h0.61v-6.09
				h-1.1l-1.68-9.32c0.38-0.14,0.67-0.5,0.67-0.91c0-0.54-0.47-0.97-1.04-0.97c-0.57,0-1.04,0.43-1.04,0.97
				c0,0.41,0.27,0.77,0.64,0.91l-1.65,9.32h-1.13V187h-0.58v-22.36h0.43v-5.12h-0.94l-1.43-7.19c0.28-0.11,0.49-0.37,0.49-0.67
				c0-0.4-0.35-0.73-0.76-0.73c-0.42,0-0.76,0.34-0.76,0.73c0,0.3,0.22,0.56,0.49,0.67l-1.43,7.19h-0.94v4.2h-1.04v-4.39
				l-8.96-59.93h-0.97c1.07-0.6,1.8-1.69,1.8-2.96c0-1.66-1.22-3.08-2.86-3.41v-3.26c0.74-0.29,1.25-0.96,1.25-1.77
				c0-0.81-0.51-1.48-1.25-1.77v-3.08h-1.52v3.08c-0.74,0.29-1.28,0.96-1.28,1.77c0,0.81,0.54,1.48,1.28,1.77v3.26
				c-1.64,0.33-2.89,1.75-2.89,3.41c0,1.27,0.73,2.35,1.8,2.96h-0.97l-8.96,59.93v4.39h-1.04v-4.2h-0.91l-1.43-7.19
				c0.27-0.11,0.46-0.37,0.46-0.67c0-0.4-0.35-0.73-0.76-0.73c-0.42,0-0.73,0.34-0.73,0.73c0,0.3,0.18,0.56,0.46,0.67l-1.43,7.19
				h-0.91v5.12h0.4V187h-0.58v-2.99h-1.1l-1.68-9.32c0.37-0.15,0.67-0.51,0.67-0.91c0-0.54-0.47-0.97-1.04-0.97
				c-0.57,0-1.04,0.43-1.04,0.97c0,0.41,0.26,0.77,0.64,0.91l-1.65,9.32h-1.1v6.09h0.58v18.92h-1.37v-3.9H210l-1.92-9.66
				c0.38-0.15,0.67-0.52,0.67-0.94c0-0.56-0.51-1.04-1.1-1.04c-0.59,0-1.07,0.47-1.07,1.04c0,0.43,0.28,0.79,0.67,0.94l-1.95,9.66
				h-1.25v7.25h0.67V290.54z M450.65,239.64v-0.15c0-3.85,3.13-6.98,6.98-6.98c3.85,0,6.95,3.13,6.95,6.98v0.15v20.87h-13.92V239.64
				z M336.62,218.28c0-0.07,0-0.14,0-0.21c0-5.09,4.12-9.2,9.2-9.2c5.09,0,9.2,4.12,9.2,9.2v0.21v39.82h-18.4V218.28z
				 M223.86,239.64v-0.15c0-3.85,3.13-6.98,6.98-6.98c3.85,0,6.95,3.13,6.95,6.98v0.15v20.87h-13.92V239.64z"/>
		</g>
		<g>
			<path class="st3" d="M66.78,334.43H37.29v-21.53h85.99v21.53H93.93v74.47H66.78V334.43z"/>
			<path class="st3" d="M217.37,387.91v20.98h-77.08v-96h75.29v20.98h-48.41v16.18h42.65v20.3h-42.65v17.55H217.37z"/>
			<path class="st3" d="M325.99,408.9l-0.27-50.88l-24.69,41.42h-12.07l-24.55-40.05v49.51h-25.1v-96h22.35l33.74,55.41l32.92-55.41
				h22.35l0.27,96H325.99z"/>
			<path class="st3" d="M463.54,348.41c0,21.81-16.46,35.38-42.65,35.38h-16.73v25.1H377v-96h43.89
				C447.09,312.89,463.54,326.47,463.54,348.41z M436.11,348.41c0-8.91-5.62-14.13-16.87-14.13h-15.09v28.11h15.09
				C430.49,362.4,436.11,357.19,436.11,348.41z"/>
			<path class="st3" d="M483.57,312.89h27.15v74.47h45.81v21.53h-72.96V312.89z"/>
			<path class="st3" d="M651.16,387.91v20.98h-77.08v-96h75.29v20.98h-48.41v16.18h42.65v20.3h-42.65v17.55H651.16z"/>
		</g>
		<g class="st8">
			<path class="st3" d="M126.88,429.04h6.93v24.5h-6.93V429.04z"/>
			<path class="st3" d="M179.55,429.04v24.5h-5.71l-10.82-13.06v13.06h-6.79v-24.5h5.71l10.82,13.06v-13.06H179.55z"/>
			<path class="st3" d="M225.26,429.04v24.5h-5.71l-10.82-13.06v13.06h-6.79v-24.5h5.71l10.82,13.06v-13.06H225.26z"/>
			<path class="st3" d="M294.74,453.96l-2.77-2.45c-2.28,1.61-5.11,2.52-8.23,2.52c-5.64,0-9.77-2.91-9.77-6.9
				c0-3.12,1.58-5.29,5.11-7.21c-1.61-1.65-2.35-3.26-2.35-4.94c0-3.75,3.26-6.3,8.23-6.3c4.52,0,7.56,2.28,7.56,5.88
				c0,2.52-1.44,4.41-4.55,6.13l3.57,3.19c0.49-1.05,0.84-2.21,1.09-3.5l5.36,1.61c-0.46,2.07-1.23,3.96-2.28,5.57l2.59,2.31
				L294.74,453.96z M287.98,447.94l-5.29-4.69c-1.58,0.94-2.21,1.93-2.21,3.15c0,1.47,1.44,2.56,3.75,2.56
				C285.57,448.96,286.86,448.61,287.98,447.94z M282.8,434.89c0,0.77,0.31,1.36,1.57,2.56c1.89-1.02,2.56-1.82,2.56-2.73
				c0-0.98-0.67-1.65-1.96-1.65C283.57,433.07,282.8,433.84,282.8,434.89z"/>
			<path class="st3" d="M345.13,451.34l2.28-5.11c2.17,1.44,5.25,2.42,8.09,2.42c2.87,0,3.99-0.81,3.99-2
				c0-3.89-13.93-1.05-13.93-10.15c0-4.38,3.57-7.95,10.85-7.95c3.19,0,6.48,0.74,8.89,2.14l-2.14,5.15
				c-2.35-1.26-4.66-1.89-6.79-1.89c-2.91,0-3.96,0.98-3.96,2.21c0,3.75,13.9,0.95,13.9,9.98c0,4.27-3.57,7.91-10.85,7.91
				C351.44,454.03,347.45,452.95,345.13,451.34z"/>
			<path class="st3" d="M386.78,442.62v-13.58h6.93v13.37c0,4.2,1.75,5.88,4.66,5.88c2.87,0,4.62-1.68,4.62-5.88v-13.37h6.83v13.58
				c0,7.32-4.27,11.41-11.52,11.41S386.78,449.94,386.78,442.62z"/>
			<path class="st3" d="M432,429.04h6.93v24.5H432V429.04z"/>
			<path class="st3" d="M466.59,434.54h-7.53v-5.5h21.95v5.5h-7.49v19.01h-6.93V434.54z"/>
			<path class="st3" d="M520.77,448.19v5.36h-19.67v-24.5h19.22v5.36h-12.36v4.13h10.89v5.18h-10.89v4.48H520.77z"/>
			<path class="st3" d="M540.4,451.34l2.28-5.11c2.17,1.44,5.25,2.42,8.09,2.42c2.87,0,3.99-0.81,3.99-2
				c0-3.89-13.93-1.05-13.93-10.15c0-4.38,3.57-7.95,10.85-7.95c3.19,0,6.48,0.74,8.89,2.14l-2.14,5.15
				c-2.35-1.26-4.66-1.89-6.79-1.89c-2.91,0-3.96,0.98-3.96,2.21c0,3.75,13.9,0.95,13.9,9.98c0,4.27-3.57,7.91-10.85,7.91
				C546.7,454.03,542.71,452.95,540.4,451.34z"/>
		</g>
	</g>
</g>
</svg>
