<svg xmlns="http://www.w3.org/2000/svg" viewBox="0 0 144 144"><defs><style>.cls-1{fill:#d3a839;}</style></defs><title>icon-parking</title><g id="Layer_1" data-name="Layer 1"><path class="cls-1" d="M72,95.71a34.9,34.9,0,1,1,34.89-34.89A34.93,34.93,0,0,1,72,95.71ZM72,30.4a30.42,30.42,0,1,0,30.42,30.42A30.45,30.45,0,0,0,72,30.4Z"/><path class="cls-1" d="M72,84.53A23.71,23.71,0,1,1,95.71,60.82,23.74,23.74,0,0,1,72,84.53Zm0-42.95A19.24,19.24,0,1,0,91.24,60.82,19.26,19.26,0,0,0,72,41.58Z"/><path class="cls-1" d="M74.24,48.51H65.29a2.25,2.25,0,0,0-2.24,2.24V70.88a2.24,2.24,0,1,0,4.48,0V63.05h6.71A6.72,6.72,0,0,0,81,56.34V55.22A6.72,6.72,0,0,0,74.24,48.51Zm2.23,7.83a2.23,2.23,0,0,1-2.23,2.24H67.53V53h6.71a2.23,2.23,0,0,1,2.23,2.23Z"/><path class="cls-1" d="M72,14.74A46.18,46.18,0,0,0,25.92,60.91c0,23.33,26.33,49.58,42.07,65.27l2.43,2.42a1.75,1.75,0,0,0,.33.28l.09.06a1.73,1.73,0,0,0,.39.18l.11,0a2.23,2.23,0,0,0,1.32,0l.11,0a1.73,1.73,0,0,0,.39-.18l.09-.06a1.75,1.75,0,0,0,.33-.28l3.21-3.19c15.44-15.33,41.29-41,41.29-64.5A46.18,46.18,0,0,0,72,14.74Zm2.24,106.9V111.56a2.24,2.24,0,1,0-4.48,0v10.07c-7.36-7.35-16.92-17-24.79-27.48C35.3,81.3,30.4,70.12,30.4,60.91a41.6,41.6,0,1,1,83.2,0C113.6,82.27,89.24,106.74,74.24,121.64Z"/><path class="cls-1" d="M72,104.66a2.24,2.24,0,0,1,0-4.48h0a2.24,2.24,0,1,1,0,4.48Z"/></g></svg>