<svg xmlns="http://www.w3.org/2000/svg" viewBox="0 0 144 144"><defs><style>.cls-1{fill:#d3a839;}</style></defs><title>icon-bus</title><g id="Layer_1" data-name="Layer 1"><path class="cls-1" d="M48.29,106.88A10.14,10.14,0,1,1,58.42,96.74,10.15,10.15,0,0,1,48.29,106.88Zm0-16.32a6.18,6.18,0,1,0,6.17,6.18A6.18,6.18,0,0,0,48.29,90.56Z"/><path class="cls-1" d="M100.37,94.8h1l.07-.32a10.13,10.13,0,0,1,19.76,0l.08.32H129V73.6H108a2,2,0,0,1-2-2V50a2,2,0,0,1,2-2h20.88l-.15-.53a8.77,8.77,0,0,0-8.44-6.44H108a2,2,0,1,1,0-4h12.29A12.73,12.73,0,0,1,133,49.84V96.78a2,2,0,0,1-2,2h-9.79l-.08.32a10.14,10.14,0,0,1-19.72,0l-.08-.32H64.56a2,2,0,0,1,0-4H77.21V73.71h-45a2,2,0,0,1,0-4h45V50.06a2,2,0,0,1,2-2H98.39a2,2,0,0,1,2,2m10.92,40.5a6.18,6.18,0,1,0,6.18,6.18A6.18,6.18,0,0,0,111.29,90.56ZM81.18,94.8H96.41V75.42H94.47a2,2,0,0,1,0-4h1.94V52.05H81.18ZM110,69.63H129V52H110Z"/><path class="cls-1" d="M98.39,41.09a2,2,0,0,1-1.4-.58,2,2,0,1,1,2.8,0A2,2,0,0,1,98.39,41.09Z"/><path class="cls-1" d="M13,98.77a2,2,0,0,1-2-2V48.7a2,2,0,0,1,.12-.68l0,0v0A12.79,12.79,0,0,1,23.72,37.12H88.79a2,2,0,1,1,0,4H23.72a8.81,8.81,0,0,0-7.93,5l-.27.6h8a2,2,0,0,1,2,2V62.14a2,2,0,0,1-2,2H15V94.8H31a2,2,0,0,1,0,4Zm2-38.62h6.6V50.68H15Z"/><path class="cls-1" d="M23.54,73.71a2,2,0,0,1-1.4-.58,2,2,0,1,1,1.4.58Z"/><path class="cls-1" d="M56.17,64.12a2,2,0,0,1-2-2V48.7a2,2,0,0,1,2-2H69.6a2,2,0,0,1,2,2V62.14a2,2,0,0,1-2,2Zm2-4h9.47V50.68H58.15Z"/><path class="cls-1" d="M33.13,64.12a2,2,0,0,1-2-2V48.7a2,2,0,0,1,2-2H46.57a2,2,0,0,1,2,2V62.14a2,2,0,0,1-2,2Zm2-4h9.47V50.68H35.12Z"/></g></svg>