<svg xmlns="http://www.w3.org/2000/svg" viewBox="0 0 144 144"><defs><style>.cls-1{fill:#d3a839;}</style></defs><title>icon-pool</title><g id="Layer_1" data-name="Layer 1"><path class="cls-1" d="M122.19,48.81h-4.33c0-6.77,1.93-21.68-8.51-21.68S100.84,42,100.84,48.81H96.59c0-6.77,1.94-21.68-8.51-21.68S79.58,42,79.58,48.81H21.81a4.25,4.25,0,0,0-4.25,4.25v53.18a10.64,10.64,0,0,0,10.63,10.63h87.62a10.64,10.64,0,0,0,10.63-10.63V53.06A4.25,4.25,0,0,0,122.19,48.81ZM105.1,37.76c0-2.64,1.71-7.31,5.17-6.21,2.64.84,3.25,4.21,3.33,6.57.13,3.55,0,7.13,0,10.69h-8.5Zm0,15.3h17.09v6.38H105.1Zm0,10.64h17.09V78.82c-3.2.47-5.24,2.71-8.17,3.69-3.37,1.13-6.13-.1-8.92-1.86ZM83.83,37.76c0-2.64,1.71-7.31,5.17-6.21,2.64.84,3.26,4.21,3.34,6.57.12,3.55,0,7.13,0,10.69H83.83Zm0,15.3h17v6.38h-17Zm0,10.64h17V78.91a13.45,13.45,0,0,0-9.41,1.61c-2.55,1.48-4.49,2.7-7.6,2.33Zm-62-10.64H79.58v6.38H21.81Zm0,19.44c2.44.57,4.27,2.51,6.62,3.35a13.41,13.41,0,0,0,8.67,0c1.95-.69,3.46-2.11,5.34-2.91s6-.08,5.47-3.12c-.85-5.26-9.84,1.11-12,2C30.25,73.9,26.94,69,21.81,68.18V63.7H79.58V81.06a13.5,13.5,0,0,0-14.81-.23c-2.33,1.43-4.34,2.4-7.18,2-2.39-.34-4-1.91-6.13-2.93a13.32,13.32,0,0,0-8.44-1c-2.43.51-4.13,2-6.28,3-6,3-9.46-2.36-14.93-3.17Zm0,10.64c3.66.84,5.94,3.72,9.93,4s6.5-1.35,9.84-3.14,6.6-1.17,9.64.71A13.92,13.92,0,0,0,61.74,86.9c3.16-.66,5.4-3.24,8.52-3.84,3.85-.74,6,1.33,9.2,2.87a13.09,13.09,0,0,0,11.24,0c3.17-1.54,5.35-3.6,9.19-2.87s6.26,3.81,10.33,4.08a13.09,13.09,0,0,0,6.33-1.06c1.93-.88,3.53-2.46,5.64-2.94v6.31c-3.51.52-5.85,3.33-9.21,4-4,.76-6.2-1.51-9.51-3a13.09,13.09,0,0,0-11.22.3c-3.24,1.67-5.7,3.67-9.63,2.55-3.14-.89-5.27-3.35-8.66-3.82-4-.55-6.93.75-10.22,2.71A9.18,9.18,0,0,1,53.82,92c-3.27-2-6.44-3.14-10.37-2.46-3.76.65-6.37,3.86-10.22,4-4.42.2-7.19-3.46-11.42-4.09Zm0,10.63c3.66.85,5.94,3.73,9.93,4s6.5-1.36,9.84-3.14,6.6-1.18,9.64.7c3.25,2,6.66,3,10.52,2.2,3.16-.67,5.4-3.25,8.52-3.85,3.85-.73,6,1.33,9.2,2.88a13.16,13.16,0,0,0,11.24,0C93.87,95,96.05,93,99.89,93.69s6.26,3.82,10.33,4.09a13.21,13.21,0,0,0,6.33-1.07c1.93-.88,3.53-2.45,5.64-2.94v6.32c-3.51.52-5.85,3.32-9.21,4-4,.76-6.2-1.5-9.51-3a13.09,13.09,0,0,0-11.22.29C89,103,86.55,105,82.62,103.89c-3.14-.89-5.27-3.36-8.66-3.83-4-.55-6.93.76-10.22,2.71a9.16,9.16,0,0,1-9.92-.18c-3.27-2-6.44-3.13-10.37-2.45-3.76.65-6.37,3.86-10.22,4-4.42.21-7.19-3.45-11.42-4.08Zm100.38,12.47a6.38,6.38,0,0,1-6.38,6.38H28.19a6.38,6.38,0,0,1-6.38-6.38v-1.83c3.66.84,5.94,3.72,9.93,4s6.5-1.35,9.84-3.13,6.6-1.18,9.64.69a13.89,13.89,0,0,0,10.52,2.2c3.16-.66,5.4-3.24,8.52-3.84,3.85-.73,6,1.33,9.2,2.87a13.09,13.09,0,0,0,11.24,0c3.17-1.54,5.35-3.6,9.19-2.87s6.26,3.81,10.33,4.08a13.09,13.09,0,0,0,6.33-1.06c1.93-.88,3.53-2.45,5.64-2.94v1.83Z"/><path class="cls-1" d="M53.29,75.05c-2.73,0-2.74-4.25,0-4.25h0C56,70.8,56,75.05,53.29,75.05Z"/></g></svg>