<svg xmlns="http://www.w3.org/2000/svg" viewBox="0 0 144 144"><defs><style>.cls-1{fill:#d3a839;}</style></defs><title>icon-breakfast</title><g id="Layer_1" data-name="Layer 1"><path class="cls-1" d="M72,128.29A56.29,56.29,0,0,1,32.2,32.2a56.29,56.29,0,1,1,79.6,79.6A55.91,55.91,0,0,1,72,128.29ZM72,20.11a51.9,51.9,0,1,0,36.69,15.2A51.55,51.55,0,0,0,72,20.11Z"/><path class="cls-1" d="M72,117.3A45.3,45.3,0,1,1,117.3,72,45.35,45.35,0,0,1,72,117.3Zm0-86.2A40.9,40.9,0,1,0,112.9,72,40.95,40.95,0,0,0,72,31.1Z"/><path class="cls-1" d="M65,46.71a2.21,2.21,0,0,0-2.2,2.2V64.3a2.19,2.19,0,0,1-2.19,2.2h-2.2V58.81a2.2,2.2,0,1,0-4.4,0V66.5h-2.2a2.2,2.2,0,0,1-2.2-2.2V48.91a2.2,2.2,0,0,0-4.4,0V64.3a6.61,6.61,0,0,0,6.6,6.6H54v2.2h-2.2a2.2,2.2,0,0,0-2.2,2.2V90.69a6.6,6.6,0,1,0,13.19,0V75.3a2.19,2.19,0,0,0-2.19-2.2h-2.2V70.9h2.2a6.6,6.6,0,0,0,6.59-6.6V48.91A2.2,2.2,0,0,0,65,46.71Zm-6.59,44a2.2,2.2,0,1,1-4.4,0V77.5h4.4Z"/><path class="cls-1" d="M91.79,46.71h-4.4a11,11,0,0,0-11,11V75.3a2.2,2.2,0,0,0,2.2,2.2h2.2V90.69a6.6,6.6,0,1,0,13.19,0V48.91A2.21,2.21,0,0,0,91.79,46.71Zm-11,11a6.6,6.6,0,0,1,6.59-6.6h2.2v22H80.8Zm8.79,33a2.2,2.2,0,0,1-4.4,0V77.5h4.4Z"/><path class="cls-1" d="M56.17,52.43a2.2,2.2,0,0,1,0-4.4h0a2.2,2.2,0,0,1,0,4.4Z"/></g></svg>