<svg xmlns="http://www.w3.org/2000/svg" viewBox="0 0 144 144"><defs><style>.cls-1{fill:#d3a839;}</style></defs><title>icon-wifi</title><g id="Layer_1" data-name="Layer 1"><path class="cls-1" d="M24.21,60.69A2.25,2.25,0,0,1,22.62,60L16,53.36a4.18,4.18,0,0,1,.07-6,81.26,81.26,0,0,1,112,0,4.18,4.18,0,0,1,.07,6l-5.32,5.31a4.16,4.16,0,0,1-5.84.08A65.37,65.37,0,0,0,25.79,60,2.24,2.24,0,0,1,24.21,60.69ZM19.32,50.4l4.91,4.91a69.87,69.87,0,0,1,95.54,0l4.91-4.91a76.82,76.82,0,0,0-105.36,0Z"/><path class="cls-1" d="M103.61,76.05a4.13,4.13,0,0,1-2.82-1.1A42.36,42.36,0,0,0,79.2,64.33,2.24,2.24,0,1,1,80,59.92a46.9,46.9,0,0,1,23.65,11.54l4.91-4.91a53.95,53.95,0,0,0-73,0l4.91,4.91a47.1,47.1,0,0,1,20.54-10.9,2.24,2.24,0,1,1,1,4.35A42.48,42.48,0,0,0,43.21,75a4.18,4.18,0,0,1-5.79-.13l-5.31-5.31a4.13,4.13,0,0,1-1.23-3,4.23,4.23,0,0,1,1.34-3,58.44,58.44,0,0,1,79.56,0,4.23,4.23,0,0,1,1.34,3,4.13,4.13,0,0,1-1.23,3l-5.31,5.31A4.18,4.18,0,0,1,103.61,76.05Z"/><path class="cls-1" d="M87.45,92.23a4.17,4.17,0,0,1-2.72-1,19.72,19.72,0,0,0-25.46,0A4.14,4.14,0,0,1,53.61,91l-5.34-5.33a4.2,4.2,0,0,1,.17-6.1,35.6,35.6,0,0,1,47.12,0,4.2,4.2,0,0,1,.17,6.1L90.39,91A4.15,4.15,0,0,1,87.45,92.23ZM72,82.07a24.19,24.19,0,0,1,15.43,5.57l4.92-4.92a31.11,31.11,0,0,0-40.7,0l4.92,4.92A24.19,24.19,0,0,1,72,82.07Z"/><path class="cls-1" d="M72,119a12.75,12.75,0,1,1,12.76-12.75A12.76,12.76,0,0,1,72,119Zm0-21a8.26,8.26,0,1,0,5.86,2.42A8.22,8.22,0,0,0,72,98Z"/><path class="cls-1" d="M70.63,63.71a2.24,2.24,0,1,1,0-4.47h0a2.24,2.24,0,1,1,0,4.47Z"/></g></svg>