<svg xmlns="http://www.w3.org/2000/svg" viewBox="0 0 144 144"><defs><style>.cls-1{fill:#d3a839;}</style></defs><title>icon-card</title><g id="Layer_1" data-name="Layer 1"><path class="cls-1" d="M113.3,38.29H30.7A12.66,12.66,0,0,0,18.06,50.93V93.07A12.66,12.66,0,0,0,30.7,105.71h82.6a12.66,12.66,0,0,0,12.64-12.64V50.93A12.66,12.66,0,0,0,113.3,38.29Zm8.42,54.78a8.44,8.44,0,0,1-8.42,8.43H30.7a8.44,8.44,0,0,1-8.42-8.43V68h99.44Zm0-29.29H22.28V55.36h99.44Zm0-12.64H22.28v-.21A8.44,8.44,0,0,1,30.7,42.5h82.6a8.44,8.44,0,0,1,8.42,8.43Z"/><path class="cls-1" d="M65.47,82.82H48.61a2.11,2.11,0,0,1,0-4.22H65.47a2.11,2.11,0,1,1,0,4.22Z"/><path class="cls-1" d="M40.19,82.82a2.11,2.11,0,1,1,0-4.22h0a2.11,2.11,0,1,1,0,4.22Z"/><path class="cls-1" d="M57,91H40.19a2.11,2.11,0,1,1,0-4.21H57A2.11,2.11,0,1,1,57,91Z"/><path class="cls-1" d="M65.47,91a2.11,2.11,0,0,1,0-4.21h0a2.11,2.11,0,1,1,0,4.21Z"/></g></svg>