<svg xmlns="http://www.w3.org/2000/svg" viewBox="0 0 144 144"><defs><style>.cls-1{fill:#d3a839;}</style></defs><title>icon-family</title><g id="Layer_1" data-name="Layer 1"><path class="cls-1" d="M36.53,115.85a1.84,1.84,0,0,0-2.6,2.6,1.84,1.84,0,1,0,2.6-2.6Z"/><path class="cls-1" d="M93.49,102.88a1.86,1.86,0,1,0,.53,1.3A1.87,1.87,0,0,0,93.49,102.88Z"/><path class="cls-1" d="M113.07,54.68a7.7,7.7,0,0,0,2.25-5.44V47.77a7.71,7.71,0,0,0-15.42,0v1.47a7.7,7.7,0,0,0,2.25,5.44,11.4,11.4,0,0,0-5.77,8.14H88a5.51,5.51,0,0,0-5.51,5.51,5.3,5.3,0,0,0,.32,1.83H61.22a5.3,5.3,0,0,0,.32-1.83A5.51,5.51,0,0,0,56,62.82H47.62a11.4,11.4,0,0,0-5.77-8.14,7.7,7.7,0,0,0,2.25-5.44V47.77a7.71,7.71,0,0,0-15.42,0v1.47a7.7,7.7,0,0,0,2.25,5.44,11.39,11.39,0,0,0-5.92,10V85.25A10.44,10.44,0,0,0,35.44,95.68H50V113.2a5.75,5.75,0,0,0,.4,2.12H43.12a1.84,1.84,0,0,0,0,3.67h65.65a1.84,1.84,0,0,0,0-3.67H93.62a5.75,5.75,0,0,0,.4-2.12v-2.11a1.84,1.84,0,0,0-3.67,0v2.11a2.11,2.11,0,1,1-4.22,0V90a5.19,5.19,0,0,1,5.19-5.18h24v.4A6.78,6.78,0,0,1,108.56,92H92.19a1.84,1.84,0,0,0-1.84,1.83v2.94a1.84,1.84,0,0,0,3.67,0v-1.1h14.54A10.44,10.44,0,0,0,119,85.25V64.66A11.39,11.39,0,0,0,113.07,54.68Zm-9.5-6.91a4,4,0,1,1,8.07,0v1.47a4,4,0,1,1-8.07,0Zm-71.21,0a4,4,0,1,1,8.07,0v1.47a4,4,0,1,1-8.07,0ZM28.68,64.66a7.71,7.71,0,0,1,15.42,0,1.83,1.83,0,0,0,1.84,1.83H56a1.84,1.84,0,1,1,0,3.67H45.34a7.88,7.88,0,0,1-7-4.17,1.84,1.84,0,0,0-3.24,1.74,11.56,11.56,0,0,0,9.06,6,2,2,0,0,0-.1.61v6.79H28.68ZM51.33,81.18H47.77V74.39a1.92,1.92,0,0,0-.08-.55h3.64a7.3,7.3,0,0,0,0,7.34Zm6.54,32a2.11,2.11,0,1,1-4.22,0V93.84A1.84,1.84,0,0,0,51.81,92H35.44a6.78,6.78,0,0,1-6.76-6.76v-.4h24A5.19,5.19,0,0,1,57.87,90Zm8.62,2.12H61.14a5.75,5.75,0,0,0,.4-2.12V90a8.79,8.79,0,0,0-1.69-5.18h6.64Zm7.35,0H70.16V84.85h3.68Zm9,0H77.51V84.85h6.64A8.79,8.79,0,0,0,82.46,90V113.2A5.75,5.75,0,0,0,82.86,115.32Zm3.46-34.14H57.68a3.67,3.67,0,1,1,0-7.34H86.32a3.67,3.67,0,1,1,0,7.34Zm9.91-6.79v6.79H92.67a7.3,7.3,0,0,0,0-7.34h3.64A1.92,1.92,0,0,0,96.23,74.39Zm19.09,6.79H99.9V74.39a2,2,0,0,0-.1-.61,11.56,11.56,0,0,0,9.06-6A1.84,1.84,0,0,0,105.62,66a7.88,7.88,0,0,1-7,4.17H88a1.84,1.84,0,1,1,0-3.67H98.06a1.83,1.83,0,0,0,1.84-1.83,7.71,7.71,0,0,1,15.42,0Z"/><path class="cls-1" d="M85.21,25H58.79a5.51,5.51,0,0,0-5.51,5.51v18A5.51,5.51,0,0,0,58.79,54h6.39l5.52,5.52a1.83,1.83,0,0,0,2.6,0L78.82,54h6.39a5.51,5.51,0,0,0,5.51-5.5v-18A5.51,5.51,0,0,0,85.21,25Zm1.84,23.5a1.83,1.83,0,0,1-1.84,1.83H78.06a1.85,1.85,0,0,0-1.3.54L72,55.64l-4.76-4.76a1.85,1.85,0,0,0-1.3-.54H58.79A1.83,1.83,0,0,1,57,48.51v-18a1.84,1.84,0,0,1,1.84-1.84H85.21a1.84,1.84,0,0,1,1.84,1.84Z"/><path class="cls-1" d="M64.67,37.51a1.82,1.82,0,0,0-2.59,0,1.83,1.83,0,0,0,0,2.6,1.82,1.82,0,0,0,2.59,0,1.83,1.83,0,0,0,0-2.6Z"/><path class="cls-1" d="M73.3,37.51a1.83,1.83,0,1,0,.54,1.3A1.87,1.87,0,0,0,73.3,37.51Z"/><path class="cls-1" d="M81.92,37.51a1.82,1.82,0,0,0-2.59,0,1.84,1.84,0,0,0,1.3,3.14,1.84,1.84,0,0,0,1.29-.54,1.83,1.83,0,0,0,0-2.6Z"/></g></svg>