<svg xmlns="http://www.w3.org/2000/svg" viewBox="0 0 144 144"><defs><style>.cls-1{fill:#d3a839;}</style></defs><title>icon-gym</title><g id="Layer_1" data-name="Layer 1"><path class="cls-1" d="M123.28,60.65H121V50.44a9.08,9.08,0,0,0-9.07-9.07,9,9,0,0,0-4.78,1.36,9.08,9.08,0,0,0-8.84-7h0a9.1,9.1,0,0,0-9.08,9.08V60.65H54.76V44.77a9.08,9.08,0,0,0-17.92-2,9,9,0,0,0-4.78-1.36A9.08,9.08,0,0,0,23,50.44V60.65H20.72a6.82,6.82,0,0,0-6.81,6.81v9.08a6.82,6.82,0,0,0,6.81,6.81H23V93.56a9.08,9.08,0,0,0,9.07,9.07,9,9,0,0,0,4.78-1.36,9.08,9.08,0,0,0,8.84,7h0a9.1,9.1,0,0,0,9.08-9.08V83.35H89.24V99.23a9.08,9.08,0,0,0,17.92,2,9,9,0,0,0,4.78,1.36A9.08,9.08,0,0,0,121,93.56V83.35h2.27a6.82,6.82,0,0,0,6.81-6.81V67.46A6.82,6.82,0,0,0,123.28,60.65ZM23,78.81H20.72a2.27,2.27,0,0,1-2.27-2.27V67.46a2.27,2.27,0,0,1,2.27-2.27H23ZM36.6,93.56a4.54,4.54,0,0,1-9.07,0V50.44a4.54,4.54,0,0,1,9.07,0Zm13.62,5.67a4.55,4.55,0,0,1-4.54,4.54h0a4.55,4.55,0,0,1-4.54-4.54V44.77a4.54,4.54,0,1,1,9.08,0Zm39-29.5H73.36a2.27,2.27,0,1,0,0,4.54H89.23v4.54H54.75V65.19H89.23Zm13.63,29.5a4.54,4.54,0,0,1-9.08,0V72.12s0,.1,0,.14v-.52s0,.09,0,.14V44.77a4.55,4.55,0,0,1,4.54-4.54h0a4.55,4.55,0,0,1,4.54,4.54Zm13.61-5.67a4.54,4.54,0,0,1-9.07,0V50.44a4.54,4.54,0,0,1,9.07,0Zm9.08-17a2.27,2.27,0,0,1-2.27,2.27H121V65.19h2.27a2.27,2.27,0,0,1,2.27,2.27Z"/></g></svg>