<?xml version="1.0" encoding="utf-8"?>
<!-- Generator: Adobe Illustrator 24.0.0, SVG Export Plug-In . SVG Version: 6.00 Build 0)  -->
<svg version="1.1" xmlns="http://www.w3.org/2000/svg" xmlns:xlink="http://www.w3.org/1999/xlink" x="0px" y="0px"
	 viewBox="0 0 688.45 338.66" style="enable-background:new 0 0 688.45 338.66;" xml:space="preserve">
<style type="text/css">
	.st0{display:none;}
	.st1{display:inline;fill:#212120;}
	.st2{display:inline;}
	.st3{fill:#FFFFFF;}
	.st4{fill:#FFFFFF;stroke:#212120;stroke-width:1.414;stroke-miterlimit:10;}
	.st5{fill:#D3A839;}
	.st6{fill:#C59D30;}
	.st7{opacity:0.4;fill:#FFFFFF;}
	.st8{fill:#212120;}
	.st9{opacity:0.4;}
	.st10{fill:#474748;}
	.st11{fill:#FFFFFF;stroke:#212120;stroke-width:1.3661;stroke-miterlimit:10;}
	.st12{fill:url(#SVGID_3_);}
	.st13{fill:none;stroke:#212120;stroke-miterlimit:10;}
	.st14{clip-path:url(#SVGID_5_);}
	.st15{fill:#FFFFFF;stroke:#212120;stroke-width:1.4073;stroke-miterlimit:10;}
	.st16{fill:url(#SVGID_8_);}
	.st17{fill:url(#SVGID_9_);}
</style>
<g id="background" class="st0">
	<rect x="0.91" class="st1" width="688.45" height="340.17"/>
</g>
<g id="Layer_1">
	<g>
		<path class="st6" d="M259.83,193.54h11.57v-3.17v-0.09c0-2.33,1.89-4.2,4.22-4.2c2.33,0,4.2,1.88,4.2,4.2v0.09v3.17h24.42
			c0-0.08-0.01-0.16-0.01-0.24c0-2.99,2.25-5.42,5.01-5.42s5,2.43,5,5.42c0,0.08-0.01,0.16-0.01,0.24h25.39v-2.58
			c0-0.04,0-0.09,0-0.13c0-3.08,2.49-5.57,5.57-5.57c3.08,0,5.57,2.49,5.57,5.57v0.13v2.58h23.45c0-0.08-0.01-0.16-0.01-0.24
			c0-2.99,2.23-5.42,5-5.42s5.01,2.43,5.01,5.42c0,0.08-0.01,0.16-0.01,0.24h24.42v-3.17v-0.09c0-2.33,1.89-4.2,4.22-4.2
			c2.33,0,4.2,1.88,4.2,4.2v0.09v3.17h11.59v-47.29h0.41v-4.39h-0.76l-1.18-5.84c0.24-0.09,0.41-0.31,0.41-0.57
			c0-0.34-0.29-0.63-0.65-0.63c-0.36,0-0.65,0.29-0.65,0.63c0,0.25,0.17,0.48,0.41,0.57l-1.18,5.84h-0.77v2.36h-0.83v-11.45h0.37
			v-3.69h-0.68l-1-5.64c0.23-0.09,0.41-0.3,0.41-0.55c0-0.33-0.28-0.59-0.63-0.59c-0.34,0-0.63,0.26-0.63,0.59
			c0,0.25,0.16,0.46,0.39,0.55l-1,5.64h-0.68v1.81h-0.35v-13.53h0.26v-3.1h-0.57l-0.87-4.35c0.17-0.06,0.29-0.22,0.29-0.41
			c0-0.24-0.21-0.44-0.46-0.44c-0.25,0-0.46,0.2-0.46,0.44c0,0.18,0.13,0.34,0.29,0.41l-0.88,4.35h-0.55v2.54h-0.63v-2.65
			l-5.42-36.26h-0.59c0.64-0.36,1.09-1.02,1.09-1.79c0-1.01-0.74-1.86-1.73-2.06v-1.97c0.44-0.18,0.76-0.59,0.76-1.07
			c0-0.48-0.32-0.89-0.76-1.07v-1.86h-0.92v1.86c-0.45,0.17-0.77,0.58-0.77,1.07c0,0.49,0.32,0.9,0.77,1.07v1.97
			c-0.99,0.2-1.75,1.06-1.75,2.06c0,0.77,0.44,1.42,1.09,1.79h-0.59l-5.42,36.26v2.65h-0.63v-2.54h-0.55l-0.87-4.35
			c0.16-0.07,0.28-0.23,0.28-0.41c0-0.24-0.21-0.44-0.46-0.44c-0.25,0-0.44,0.2-0.44,0.44c0,0.18,0.11,0.34,0.28,0.41l-0.87,4.35
			h-0.55v3.1h0.24v13.53h-0.35v-1.81h-0.66l-1.01-5.64c0.22-0.09,0.41-0.31,0.41-0.55c0-0.33-0.28-0.59-0.63-0.59
			s-0.63,0.26-0.63,0.59c0,0.25,0.16,0.47,0.39,0.55l-1,5.64h-0.68v3.69h0.37v11.45H394v-2.36h-0.77l-1.16-5.84
			c0.23-0.09,0.41-0.32,0.41-0.57c0-0.34-0.31-0.63-0.66-0.63c-0.36,0-0.65,0.29-0.65,0.63c0,0.26,0.17,0.48,0.41,0.57l-1.18,5.84
			h-0.76v4.39h0.41V171h-4.81v-4.13h-4.41v2.43h-3.5v-4.37h-4.41v2.67h-4.83v-28.47h0.52v-5.44h-0.96l-1.44-7.24
			c0.29-0.11,0.5-0.38,0.5-0.7c0-0.42-0.37-0.76-0.81-0.76c-0.44,0-0.79,0.34-0.79,0.76c0,0.32,0.21,0.58,0.5,0.7l-1.46,7.24h-0.94
			v2.91h-1.05v-14.16h0.46v-4.57h-0.83l-1.24-6.97c0.28-0.11,0.48-0.37,0.48-0.68c0-0.41-0.35-0.74-0.77-0.74
			c-0.43,0-0.77,0.33-0.77,0.74c0,0.3,0.22,0.57,0.5,0.68l-1.24,6.97h-0.83v2.25h-0.46v-16.74h0.33v-3.85h-0.7l-1.07-5.38
			c0.21-0.08,0.35-0.27,0.35-0.5c0-0.3-0.26-0.53-0.57-0.53c-0.31,0-0.57,0.24-0.57,0.53c0,0.22,0.17,0.42,0.37,0.5l-1.09,5.38
			h-0.68v3.17h-0.77v-3.3l-6.71-44.85h-0.68c0.81-0.49,1.36-1.38,1.36-2.4c0-1.33-0.94-2.43-2.19-2.71v-1.59l0.68-0.52v-3.1
			l0.52-0.33l-0.04-4.29l1.57,3.3c0,0,0.2-0.28,0.24-0.42c0.07-0.23-0.06-0.65-0.06-0.65l-1.27-4.06l-0.2-0.41l-0.26-0.18h-1.01
			c0,0,0.01-1.25-0.11-1.86c-0.04-0.21-0.18-0.63-0.18-0.63s-0.14-0.36-0.28-0.46c-0.18-0.13-0.39-0.12-0.61-0.13
			c-0.21-0.01-0.38-0.01-0.55,0.11c-0.1,0.07-0.24,0.28-0.24,0.28l-0.07,0.29l-2.76-2.58l-0.68-1.03l0,0l-0.65,1.12l1,0.26
			l0.94,0.77l-0.26,1.97l-0.11,0.88c0,0-0.04,0.21,0,0.31c0.03,0.1,0.17,0.2,0.17,0.2l1.27,1.22v6.01l0.57,0.13l0.33,3.94h0.87v1.42
			c-1.25,0.28-2.19,1.38-2.19,2.71c0,1.02,0.55,1.91,1.36,2.4h-0.68l-6.71,44.85v3.3h-0.76v-3.17h-0.7l-1.07-5.38
			c0.2-0.08,0.35-0.28,0.35-0.5c0-0.3-0.26-0.53-0.57-0.53s-0.57,0.24-0.57,0.53c0,0.23,0.16,0.42,0.37,0.5l-1.09,5.38h-0.68v3.85
			H331v16.74h-0.44v-2.25h-0.83l-1.24-6.97c0.28-0.11,0.48-0.38,0.48-0.68c0-0.41-0.35-0.74-0.77-0.74c-0.43,0-0.77,0.33-0.77,0.74
			c0,0.31,0.2,0.57,0.48,0.68l-1.24,6.97h-0.83v4.57h0.46v14.16h-1.03v-2.91h-0.96l-1.46-7.24c0.29-0.12,0.52-0.39,0.52-0.7
			c0-0.42-0.37-0.76-0.81-0.76c-0.44,0-0.81,0.34-0.81,0.76c0,0.32,0.22,0.59,0.52,0.7l-1.46,7.24h-0.96v5.44h0.52v28.47h-4.83
			v-2.67h-4.41v4.37h-3.5v-2.43h-4.39V171h-4.83v-24.75h0.42v-4.39h-0.77l-1.18-5.84c0.24-0.09,0.41-0.31,0.41-0.57
			c0-0.34-0.29-0.63-0.65-0.63c-0.36,0-0.65,0.29-0.65,0.63c0,0.25,0.17,0.48,0.41,0.57l-1.18,5.84h-0.77v2.36h-0.83v-11.45h0.37
			v-3.69h-0.66l-1.01-5.64c0.23-0.09,0.41-0.3,0.41-0.55c0-0.33-0.28-0.59-0.63-0.59c-0.34,0-0.63,0.26-0.63,0.59
			c0,0.25,0.16,0.46,0.39,0.55l-1,5.64h-0.68v1.81h-0.35v-13.53h0.26v-3.1h-0.57l-0.87-4.35c0.17-0.06,0.29-0.22,0.29-0.41
			c0-0.24-0.21-0.44-0.46-0.44s-0.46,0.2-0.46,0.44c0,0.18,0.13,0.34,0.29,0.41l-0.87,4.35h-0.57v2.54h-0.63v-2.65l-5.42-36.26
			h-0.59c0.64-0.36,1.09-1.02,1.09-1.79c0-1.01-0.74-1.86-1.73-2.06v-1.97c0.45-0.17,0.76-0.58,0.76-1.07s-0.31-0.9-0.76-1.07v-1.86
			h-0.92v1.86c-0.45,0.17-0.77,0.58-0.77,1.07c0,0.49,0.32,0.9,0.77,1.07v1.97c-0.99,0.2-1.75,1.06-1.75,2.06
			c0,0.77,0.44,1.42,1.09,1.79h-0.59L272,114.16v2.65h-0.63v-2.54h-0.55l-0.87-4.35c0.16-0.07,0.28-0.23,0.28-0.41
			c0-0.24-0.21-0.44-0.46-0.44c-0.25,0-0.44,0.2-0.44,0.44c0,0.18,0.11,0.34,0.28,0.41l-0.87,4.35h-0.55v3.1h0.24v13.53h-0.35v-1.81
			h-0.66l-1.01-5.64c0.22-0.09,0.41-0.31,0.41-0.55c0-0.33-0.28-0.59-0.63-0.59c-0.34,0-0.63,0.26-0.63,0.59
			c0,0.25,0.16,0.47,0.39,0.55l-1,5.64h-0.66v3.69h0.35v11.45h-0.83v-2.36h-0.77l-1.16-5.84c0.23-0.09,0.41-0.32,0.41-0.57
			c0-0.34-0.31-0.63-0.66-0.63c-0.36,0-0.65,0.29-0.65,0.63c0,0.26,0.17,0.48,0.41,0.57l-1.18,5.84h-0.76v4.39h0.41V193.54z
			 M408.62,162.74v-0.09c0-2.33,1.89-4.22,4.22-4.22c2.33,0,4.2,1.89,4.2,4.22v0.09v12.63h-8.42V162.74z M339.63,149.82
			c0-0.04,0-0.09,0-0.13c0-3.08,2.49-5.57,5.57-5.57c3.08,0,5.57,2.49,5.57,5.57v0.13v24.09h-11.13V149.82z M271.41,162.74v-0.09
			c0-2.33,1.89-4.22,4.22-4.22c2.33,0,4.2,1.89,4.2,4.22v0.09v12.63h-8.42V162.74z"/>
		<g>
			<g>
				<path class="st3" d="M169.43,234.99c0,12.72-9.6,20.64-24.88,20.64h-9.76v14.64h-15.84v-56h25.6
					C159.83,214.27,169.43,222.19,169.43,234.99z M153.43,234.99c0-5.2-3.28-8.24-9.84-8.24h-8.8v16.4h8.8
					C150.15,243.15,153.43,240.11,153.43,234.99z"/>
				<path class="st3" d="M209.59,255.39h-8.64v14.88h-15.84v-56h25.6c15.28,0,24.88,7.92,24.88,20.72c0,8.24-4,14.32-10.96,17.68
					l12.08,17.6h-16.96L209.59,255.39z M209.75,226.75h-8.8v16.4h8.8c6.56,0,9.84-3.04,9.84-8.16
					C219.59,229.79,216.31,226.75,209.75,226.75z"/>
				<path class="st3" d="M297.27,258.03v12.24h-44.96v-56h43.92v12.24h-28.24v9.44h24.88v11.84h-24.88v10.24H297.27z"/>
				<path class="st3" d="M364.63,270.27l-0.16-29.68l-14.4,24.16h-7.04l-14.32-23.36v28.88h-14.64v-56h13.04l19.68,32.32l19.2-32.32
					h13.04l0.16,56H364.63z"/>
				<path class="st3" d="M398.39,214.27h15.84v56h-15.84V214.27z"/>
				<path class="st3" d="M433.02,245.31v-31.04h15.84v30.56c0,9.6,4,13.44,10.64,13.44c6.56,0,10.56-3.84,10.56-13.44v-30.56h15.6
					v31.04c0,16.72-9.76,26.08-26.32,26.08C442.79,271.39,433.02,262.03,433.02,245.31z"/>
				<path class="st3" d="M554.95,270.27l-0.16-29.68l-14.4,24.16h-7.04l-14.32-23.36v28.88h-14.64v-56h13.04l19.68,32.32l19.2-32.32
					h13.04l0.16,56H554.95z"/>
			</g>
			<g>
				<path class="st7" d="M161.88,312.27l-0.07-12.99l-6.3,10.57h-3.08l-6.27-10.22v12.64h-6.41v-24.5h5.71l8.61,14.14l8.4-14.14
					h5.71l0.07,24.5H161.88z"/>
				<path class="st7" d="M210.32,306.92v5.36h-19.67v-24.5h19.22v5.36h-12.36v4.13h10.89v5.18h-10.89v4.48H210.32z"/>
				<path class="st7" d="M253.79,312.27l-0.07-12.99l-6.3,10.57h-3.08l-6.27-10.22v12.64h-6.41v-24.5h5.71l8.61,14.14l8.4-14.14
					h5.71l0.07,24.5H253.79z"/>
				<path class="st7" d="M305.87,305.55c0,4.24-3.5,6.72-10.08,6.72h-13.23v-24.5h12.53c6.44,0,9.59,2.63,9.59,6.41
					c0,2.35-1.19,4.24-3.29,5.32C304.15,300.48,305.87,302.58,305.87,305.55z M289.42,292.78v4.73h4.76c2.31,0,3.5-0.81,3.5-2.38
					c0-1.54-1.19-2.35-3.5-2.35H289.42z M298.87,304.78c0-1.68-1.26-2.49-3.64-2.49h-5.81v4.97h5.81
					C297.61,307.27,298.87,306.46,298.87,304.78z"/>
				<path class="st7" d="M346.64,306.92v5.36h-19.67v-24.5h19.22v5.36h-12.36v4.13h10.89v5.18h-10.89v4.48H346.64z"/>
				<path class="st7" d="M378.7,305.76h-3.78v6.51h-6.93v-24.5h11.2c6.69,0,10.89,3.47,10.89,9.07c0,3.61-1.75,6.27-4.8,7.74
					l5.29,7.7h-7.42L378.7,305.76z M378.77,293.23h-3.85v7.18h3.85c2.87,0,4.31-1.33,4.31-3.57
					C383.08,294.56,381.64,293.23,378.77,293.23z"/>
				<path class="st7" d="M409.67,310.07l2.28-5.11c2.17,1.44,5.25,2.42,8.09,2.42c2.87,0,3.99-0.81,3.99-2
					c0-3.89-13.93-1.05-13.93-10.15c0-4.38,3.57-7.95,10.85-7.95c3.18,0,6.48,0.74,8.89,2.14l-2.13,5.15
					c-2.35-1.26-4.66-1.89-6.79-1.89c-2.91,0-3.96,0.98-3.96,2.21c0,3.75,13.9,0.95,13.9,9.98c0,4.27-3.57,7.91-10.85,7.91
					C415.98,312.77,411.99,311.68,409.67,310.07z"/>
				<path class="st7" d="M474.85,287.77v24.5h-6.93v-9.56h-9.45v9.56h-6.93v-24.5h6.93v9.21h9.45v-9.21H474.85z"/>
				<path class="st7" d="M497.25,287.77h6.93v24.5h-6.93V287.77z"/>
				<path class="st7" d="M548.7,296.84c0,5.57-4.2,9.03-10.89,9.03h-4.27v6.41h-6.93v-24.5h11.2
					C544.5,287.77,548.7,291.24,548.7,296.84z M541.7,296.84c0-2.28-1.43-3.61-4.3-3.61h-3.85v7.18h3.85
					C540.26,300.41,541.7,299.08,541.7,296.84z"/>
			</g>
		</g>
	</g>
</g>
</svg>
